<svg width="22" height="22" viewBox="0 0 22 22" fill="none" xmlns="http://www.w3.org/2000/svg">
<g id="mdi:instagram">
<path id="Vector" d="M7.14967 1.83301H14.8497C17.783 1.83301 20.1663 4.21634 20.1663 7.14967V14.8497C20.1663 16.2597 19.6062 17.6121 18.6091 18.6091C17.6121 19.6062 16.2597 20.1663 14.8497 20.1663H7.14967C4.21634 20.1663 1.83301 17.783 1.83301 14.8497V7.14967C1.83301 5.73961 2.39316 4.38729 3.39022 3.39022C4.38729 2.39316 5.73961 1.83301 7.14967 1.83301ZM6.96634 3.66634C6.09113 3.66634 5.25176 4.01402 4.63289 4.63289C4.01402 5.25176 3.66634 6.09113 3.66634 6.96634V15.033C3.66634 16.8572 5.14217 18.333 6.96634 18.333H15.033C15.9082 18.333 16.7476 17.9853 17.3665 17.3665C17.9853 16.7476 18.333 15.9082 18.333 15.033V6.96634C18.333 5.14217 16.8572 3.66634 15.033 3.66634H6.96634ZM15.8122 5.04134C16.1161 5.04134 16.4075 5.16206 16.6224 5.37695C16.8373 5.59183 16.958 5.88328 16.958 6.18717C16.958 6.49107 16.8373 6.78252 16.6224 6.9974C16.4075 7.21229 16.1161 7.33301 15.8122 7.33301C15.5083 7.33301 15.2168 7.21229 15.0019 6.9974C14.7871 6.78252 14.6663 6.49107 14.6663 6.18717C14.6663 5.88328 14.7871 5.59183 15.0019 5.37695C15.2168 5.16206 15.5083 5.04134 15.8122 5.04134ZM10.9997 6.41634C12.2153 6.41634 13.381 6.89923 14.2406 7.75877C15.1001 8.61831 15.583 9.7841 15.583 10.9997C15.583 12.2153 15.1001 13.381 14.2406 14.2406C13.381 15.1001 12.2153 15.583 10.9997 15.583C9.7841 15.583 8.61831 15.1001 7.75877 14.2406C6.89923 13.381 6.41634 12.2153 6.41634 10.9997C6.41634 9.7841 6.89923 8.61831 7.75877 7.75877C8.61831 6.89923 9.7841 6.41634 10.9997 6.41634ZM10.9997 8.24967C10.2703 8.24967 9.57086 8.53941 9.05513 9.05513C8.53941 9.57086 8.24967 10.2703 8.24967 10.9997C8.24967 11.729 8.53941 12.4285 9.05513 12.9442C9.57086 13.4599 10.2703 13.7497 10.9997 13.7497C11.729 13.7497 12.4285 13.4599 12.9442 12.9442C13.4599 12.4285 13.7497 11.729 13.7497 10.9997C13.7497 10.2703 13.4599 9.57086 12.9442 9.05513C12.4285 8.53941 11.729 8.24967 10.9997 8.24967Z" fill="black"/>
</g>
</svg>
