<svg width="30" height="30" viewBox="0 0 30 30" fill="none" xmlns="http://www.w3.org/2000/svg">
<g id="fi-rr-woman-head" clip-path="url(#clip0_410_42570)">
<path id="Vector" d="M18.1247 16.2491C17.7539 16.2491 17.3914 16.1391 17.083 15.9331C16.7747 15.727 16.5344 15.4342 16.3924 15.0916C16.2505 14.749 16.2134 14.372 16.2858 14.0083C16.3581 13.6445 16.5367 13.3105 16.7989 13.0482C17.0611 12.786 17.3952 12.6074 17.7589 12.5351C18.1226 12.4627 18.4996 12.4999 18.8423 12.6418C19.1849 12.7837 19.4777 13.024 19.6837 13.3324C19.8898 13.6407 19.9997 14.0032 19.9997 14.3741C19.9997 14.8713 19.8022 15.3483 19.4505 15.6999C19.0989 16.0515 18.622 16.2491 18.1247 16.2491ZM29.906 22.6791C30.062 23.5768 30.0198 24.4978 29.7823 25.3776C29.5449 26.2573 29.118 27.0745 28.5315 27.7719C27.945 28.4692 27.2131 29.0299 26.3871 29.4147C25.5611 29.7994 24.6609 29.9988 23.7497 29.9991H18.7497C18.4182 29.9991 18.1003 29.8674 17.8658 29.6329C17.6314 29.3985 17.4997 29.0806 17.4997 28.7491V25.9203C16.6837 26.1355 15.8436 26.246 14.9997 26.2491C14.1553 26.2447 13.315 26.1313 12.4997 25.9116V28.7491C12.4997 29.0806 12.368 29.3985 12.1336 29.6329C11.8992 29.8674 11.5813 29.9991 11.2497 29.9991H6.24974C5.33852 29.9988 4.43838 29.7994 3.61237 29.4147C2.78636 29.0299 2.05446 28.4692 1.46796 27.7719C0.881461 27.0745 0.454541 26.2573 0.217114 25.3776C-0.0203137 24.4978 -0.0625057 23.5768 0.093494 22.6791L0.468493 20.5041C0.593191 19.7807 0.931736 19.1112 1.44047 18.5821C1.94921 18.0529 2.6048 17.6882 3.32272 17.5352C4.04064 17.3821 4.78795 17.4476 5.46829 17.7232C6.14863 17.9988 6.73081 18.472 7.13974 19.0816C8.71973 21.4041 11.761 23.7491 14.9997 23.7491C18.9122 23.7491 22.7672 20.2753 23.9122 17.0291C24.0041 16.785 24.1679 16.5747 24.382 16.4258C24.596 16.2769 24.8502 16.1966 25.111 16.1953L25.651 16.2041C25.893 16.207 26.1332 16.1619 26.3576 16.0712C26.582 15.9805 26.7862 15.8461 26.9582 15.6759C27.1302 15.5056 27.2667 15.3028 27.3597 15.0793C27.4526 14.8558 27.5002 14.6161 27.4997 14.3741C27.4993 13.9356 27.3452 13.5112 27.0643 13.1746C26.7834 12.838 26.3935 12.6105 25.9622 12.5316C25.6963 12.4833 25.4531 12.3502 25.2692 12.1521C25.0853 11.954 24.9706 11.7016 24.9422 11.4328C24.6853 8.97692 23.5263 6.70372 21.6895 5.05333C19.8528 3.40294 17.469 2.49278 14.9997 2.49906C8.02848 2.49906 6.11474 7.03406 4.57724 10.6791C4.29724 11.3378 4.03349 11.9666 3.74974 12.5328C6.26322 12.3999 8.7141 11.7003 10.919 10.4864C13.1239 9.27244 15.0258 7.5756 16.4822 5.52281C16.5776 5.38919 16.6984 5.27566 16.8376 5.18871C16.9768 5.10176 17.1319 5.04309 17.2938 5.01604C17.4557 4.989 17.6214 4.99411 17.7813 5.03109C17.9413 5.06807 18.0924 5.13619 18.226 5.23156C18.3596 5.32693 18.4731 5.44769 18.5601 5.58694C18.647 5.72618 18.7057 5.88119 18.7327 6.04311C18.7598 6.20504 18.7547 6.3707 18.7177 6.53065C18.6807 6.69059 18.6126 6.84169 18.5172 6.97531C16.8948 9.27551 14.778 11.1834 12.3222 12.5591C12.6966 12.651 13.0335 12.856 13.2871 13.1463C13.5407 13.4366 13.6987 13.7979 13.7396 14.1812C13.7805 14.5645 13.7022 14.9511 13.5155 15.2883C13.3287 15.6255 13.0426 15.897 12.696 16.0657C12.3495 16.2345 11.9593 16.2923 11.5787 16.2314C11.1981 16.1705 10.8455 15.9937 10.569 15.7252C10.2924 15.4567 10.1054 15.1094 10.0333 14.7308C9.96115 14.3521 10.0075 13.9604 10.166 13.6091C7.29201 14.7728 4.18449 15.2438 1.09474 14.9841C0.837208 14.9495 0.59683 14.8356 0.40704 14.6582C0.21725 14.4807 0.0874818 14.2485 0.0357833 13.9938C-0.0159152 13.7392 0.0130256 13.4748 0.118581 13.2373C0.224136 12.9999 0.401059 12.8013 0.624743 12.6691C1.38041 11.8117 1.94272 10.8017 2.27349 9.70781C3.90474 5.84156 6.37474 -0.000941553 14.9997 -0.000941553C17.9427 -0.0079134 20.7932 1.02662 23.0466 2.91951C25.3001 4.81241 26.8111 7.44157 27.3122 10.3416C28.1077 10.6741 28.7871 11.2343 29.2653 11.9517C29.7434 12.6692 29.9989 13.5119 29.9997 14.3741C29.9976 15.4128 29.6182 16.4154 28.9322 17.1953C28.941 17.2278 28.9635 17.2541 28.9697 17.2891L29.906 22.6791ZM9.99973 24.9241C8.02255 23.8645 6.33208 22.3409 5.07349 20.4841C4.96638 20.3222 4.82106 20.1891 4.65037 20.0967C4.47967 20.0043 4.28885 19.9553 4.09474 19.9541H4.07349C3.79982 19.9598 3.53664 20.0604 3.32894 20.2387C3.12123 20.417 2.98189 20.6619 2.93474 20.9316L2.55974 23.1053C2.46591 23.6438 2.49093 24.1963 2.63304 24.7241C2.77515 25.2518 3.03092 25.7422 3.38244 26.1607C3.73395 26.5793 4.17272 26.916 4.66802 27.1471C5.16331 27.3783 5.70315 27.4984 6.24974 27.4991H9.99973V24.9241ZM27.4435 23.1053L26.6585 18.5891C26.4208 18.6457 26.1786 18.6817 25.9347 18.6966C24.6736 21.3577 22.5938 23.5452 19.9997 24.9391V27.4991H23.7497C24.2965 27.4989 24.8366 27.3793 25.3323 27.1484C25.8279 26.9175 26.2671 26.5811 26.619 26.1626C26.9709 25.7441 27.2271 25.2537 27.3695 24.7258C27.5119 24.1979 27.5371 23.6453 27.4435 23.1066V23.1053Z" fill="white"/>
</g>
<defs>
<clipPath id="clip0_410_42570">
<rect width="30" height="30" fill="white"/>
</clipPath>
</defs>
</svg>
