<svg width="149" height="26" viewBox="0 0 149 26" fill="none" xmlns="http://www.w3.org/2000/svg">
<g id="Layer_1" clip-path="url(#clip0_410_42774)">
<path id="Vector" d="M69.2758 13.005C69.2758 5.68135 75.1252 0.0673828 82.3314 0.0673828C89.5376 0.0673828 95.387 5.68615 95.387 13.005C95.387 20.3238 89.5376 25.9425 82.3314 25.9425C75.1252 25.9425 69.2758 20.3238 69.2758 13.005ZM89.6491 13.005C89.6491 8.56277 86.4216 5.60931 82.3314 5.60931C78.2412 5.60931 75.0137 8.55796 75.0137 13.005C75.0137 17.4519 78.2412 20.4006 82.3314 20.4006C86.4216 20.4006 89.6491 17.4519 89.6491 13.005Z" fill="white"/>
<path id="Vector_2" d="M107.764 7.79883V13.8402C105.54 13.4848 102.385 14.3733 102.385 17.8934V25.9278H97.0056V8.1542H102.385V11.319C103.102 8.93699 105.506 7.79883 107.764 7.79883Z" fill="white"/>
<path id="Vector_3" d="M128.137 16.559C128.137 21.856 124.265 25.9428 119.564 25.9428C117.161 25.9428 115.402 25.1264 114.219 23.7721V25.962H108.84V1.65723H114.219V9.34101C115.402 7.99154 117.161 7.17514 119.564 7.17514C124.265 7.17514 128.137 11.262 128.137 16.559ZM122.758 16.559C122.758 13.8937 120.965 12.2224 118.489 12.2224C116.012 12.2224 114.219 13.8937 114.219 16.559C114.219 19.2243 116.012 20.8955 118.489 20.8955C120.965 20.8955 122.758 19.2243 122.758 16.559Z" fill="white"/>
<path id="Vector_4" d="M129.213 8.83607C129.213 7.09281 130.682 5.6377 132.441 5.6377C134.2 5.6377 135.668 7.09281 135.668 8.83607C135.668 10.5793 134.195 12.0344 132.441 12.0344C130.686 12.0344 129.213 10.5793 129.213 8.83607Z" fill="white"/>
<path id="Vector_5" d="M135.13 13.125H129.751V25.8657H135.13V13.125Z" fill="white"/>
<path id="Vector_6" d="M145.307 13.2117V19.5028C145.307 21.0299 146.635 21.174 149 21.0299V25.8659C141.968 26.5767 139.923 24.478 139.923 19.5028V13.2117H137.054V8.09236H139.923V3.21315L145.302 3.1123V8.08755H148.995V13.2069H145.302L145.307 13.2117Z" fill="white"/>
<path id="Vector_7" d="M40.3976 7.77539V13.8168C38.1732 13.4614 35.0183 14.3498 35.0183 17.87V25.9043H29.6391V8.13077H35.0183V11.2955C35.7356 8.91355 38.1393 7.77539 40.3976 7.77539Z" fill="white"/>
<path id="Vector_8" d="M60.5188 7.72715V25.9233H55.1396V23.8343C53.9571 25.1837 52.198 26.0049 49.7943 26.0049C45.0935 26.0049 41.2214 21.9181 41.2214 16.6211C41.2214 11.3241 45.0935 7.2373 49.7943 7.2373C52.198 7.2373 53.9571 8.05371 55.1396 9.40317V7.73195H60.5188V7.72715ZM55.1396 16.6163C55.1396 13.951 53.3465 12.2798 50.8701 12.2798C48.3938 12.2798 46.6007 13.951 46.6007 16.6163C46.6007 19.2816 48.3938 20.9529 50.8701 20.9529C53.3465 20.9529 55.1396 19.2816 55.1396 16.6163Z" fill="white"/>
<path id="Vector_9" d="M62.1811 0.581055H67.5603V25.9231H62.1811V0.581055Z" fill="white"/>
<path id="Vector_10" d="M2.20984 12.9376C2.20984 5.61877 8.05915 0 15.2702 0C22.4813 0 28.3258 5.61877 28.3258 12.9376C28.3258 20.2564 22.4765 25.8751 15.2702 25.8751C8.064 25.8751 2.20984 20.2612 2.20984 12.9376ZM22.5831 12.9376C22.5831 8.49538 19.3556 5.54193 15.2654 5.54193C11.1752 5.54193 7.94769 8.49058 7.94769 12.9376C7.94769 17.3846 11.1752 20.3332 15.2654 20.3332C19.3556 20.3332 22.5831 17.3846 22.5831 12.9376Z" fill="white"/>
<path id="Vector_11" d="M15.6337 24.2038C21.9261 24.2038 27.027 19.1489 27.027 12.9134C27.027 6.67791 21.9261 1.62305 15.6337 1.62305C9.34135 1.62305 4.24039 6.67791 4.24039 12.9134C4.24039 19.1489 9.34135 24.2038 15.6337 24.2038Z" fill="white"/>
<path id="Vector_12" d="M5.00608 17.1346C7.77086 17.1346 10.0122 14.9135 10.0122 12.1737C10.0122 9.43394 7.77086 7.21289 5.00608 7.21289C2.2413 7.21289 0 9.43394 0 12.1737C0 14.9135 2.2413 17.1346 5.00608 17.1346Z" fill="#FF86FF"/>
</g>
<defs>
<clipPath id="clip0_410_42774">
<rect width="149" height="26" fill="white"/>
</clipPath>
</defs>
</svg>
