<svg width="33" height="33" viewBox="0 0 33 33" fill="none" xmlns="http://www.w3.org/2000/svg">
<g id="fi-rr-school" clip-path="url(#clip0_410_42572)">
<path id="Vector" d="M26.125 8.25034H19.6914C19.1433 7.85972 18.5274 7.57437 17.875 7.40884V6.87534L22.7288 4.60384C22.9277 4.48052 23.0919 4.30845 23.2058 4.10392C23.3197 3.89939 23.3794 3.66918 23.3794 3.43509C23.3794 3.201 23.3197 2.97078 23.2058 2.76625C23.0919 2.56172 22.9277 2.38965 22.7288 2.26634L18.3288 0.203836C17.9852 0.0433071 17.6067 -0.0278291 17.2283 -0.00296987C16.8499 0.0218893 16.484 0.141938 16.1644 0.346033C15.8448 0.550129 15.5819 0.831655 15.4002 1.16448C15.2185 1.49731 15.1239 1.87064 15.125 2.24984V7.40884C14.473 7.57414 13.8575 7.85951 13.31 8.25034H6.875C5.05231 8.25252 3.30489 8.97755 2.01605 10.2664C0.727213 11.5552 0.0021833 13.3026 0 15.1253L0 28.8753C0 29.9694 0.434597 31.0186 1.20818 31.7922C1.98177 32.5657 3.03098 33.0003 4.125 33.0003H28.875C29.969 33.0003 31.0182 32.5657 31.7918 31.7922C32.5654 31.0186 33 29.9694 33 28.8753V15.1253C32.9978 13.3026 32.2728 11.5552 30.9839 10.2664C29.6951 8.97755 27.9477 8.25252 26.125 8.25034ZM29.997 13.7503H27.0284C25.935 13.7476 24.8869 13.3132 24.112 12.5417L22.5693 11.0003H26.125C26.9751 11.0039 27.8034 11.27 28.4965 11.7622C29.1896 12.2545 29.7136 12.9488 29.997 13.7503ZM6.875 11.0003H10.4307L8.888 12.5417C8.11315 13.3132 7.06504 13.7476 5.97162 13.7503H3.003C3.28636 12.9488 3.81044 12.2545 4.50354 11.7622C5.19663 11.27 6.02489 11.0039 6.875 11.0003ZM17.875 30.2503H15.125V26.1253C15.125 25.7607 15.2699 25.4109 15.5277 25.1531C15.7856 24.8952 16.1353 24.7503 16.5 24.7503C16.8647 24.7503 17.2144 24.8952 17.4723 25.1531C17.7301 25.4109 17.875 25.7607 17.875 26.1253V30.2503ZM28.875 30.2503H20.625V26.1253C20.625 25.0313 20.1904 23.9821 19.4168 23.2085C18.6432 22.4349 17.594 22.0003 16.5 22.0003C15.406 22.0003 14.3568 22.4349 13.5832 23.2085C12.8096 23.9821 12.375 25.0313 12.375 26.1253V30.2503H4.125C3.76033 30.2503 3.41059 30.1055 3.15273 29.8476C2.89487 29.5897 2.75 29.24 2.75 28.8753V16.5003H5.97162C6.87475 16.5026 7.76935 16.3257 8.60366 15.9799C9.43798 15.6341 10.1954 15.1264 10.8322 14.486L14.5558 10.7638C15.0715 10.2483 15.7708 9.95867 16.5 9.95867C17.2292 9.95867 17.9285 10.2483 18.4443 10.7638L22.1677 14.486C22.8046 15.1264 23.562 15.6341 24.3963 15.9799C25.2307 16.3257 26.1253 16.5026 27.0284 16.5003H30.25V28.8753C30.25 29.24 30.1051 29.5897 29.8473 29.8476C29.5894 30.1055 29.2397 30.2503 28.875 30.2503ZM9.625 20.6253C9.625 20.99 9.48013 21.3397 9.22227 21.5976C8.96441 21.8555 8.61467 22.0003 8.25 22.0003H6.875C6.51033 22.0003 6.16059 21.8555 5.90273 21.5976C5.64487 21.3397 5.5 20.99 5.5 20.6253C5.5 20.2607 5.64487 19.9109 5.90273 19.6531C6.16059 19.3952 6.51033 19.2503 6.875 19.2503H8.25C8.61467 19.2503 8.96441 19.3952 9.22227 19.6531C9.48013 19.9109 9.625 20.2607 9.625 20.6253ZM9.625 26.1253C9.625 26.49 9.48013 26.8397 9.22227 27.0976C8.96441 27.3555 8.61467 27.5003 8.25 27.5003H6.875C6.51033 27.5003 6.16059 27.3555 5.90273 27.0976C5.64487 26.8397 5.5 26.49 5.5 26.1253C5.5 25.7607 5.64487 25.4109 5.90273 25.1531C6.16059 24.8952 6.51033 24.7503 6.875 24.7503H8.25C8.61467 24.7503 8.96441 24.8952 9.22227 25.1531C9.48013 25.4109 9.625 25.7607 9.625 26.1253ZM27.5 20.6253C27.5 20.99 27.3551 21.3397 27.0973 21.5976C26.8394 21.8555 26.4897 22.0003 26.125 22.0003H24.75C24.3853 22.0003 24.0356 21.8555 23.7777 21.5976C23.5199 21.3397 23.375 20.99 23.375 20.6253C23.375 20.2607 23.5199 19.9109 23.7777 19.6531C24.0356 19.3952 24.3853 19.2503 24.75 19.2503H26.125C26.4897 19.2503 26.8394 19.3952 27.0973 19.6531C27.3551 19.9109 27.5 20.2607 27.5 20.6253ZM27.5 26.1253C27.5 26.49 27.3551 26.8397 27.0973 27.0976C26.8394 27.3555 26.4897 27.5003 26.125 27.5003H24.75C24.3853 27.5003 24.0356 27.3555 23.7777 27.0976C23.5199 26.8397 23.375 26.49 23.375 26.1253C23.375 25.7607 23.5199 25.4109 23.7777 25.1531C24.0356 24.8952 24.3853 24.7503 24.75 24.7503H26.125C26.4897 24.7503 26.8394 24.8952 27.0973 25.1531C27.3551 25.4109 27.5 25.7607 27.5 26.1253ZM19.25 16.5003C19.25 17.0442 19.0887 17.5759 18.7865 18.0282C18.4844 18.4804 18.0549 18.8329 17.5524 19.041C17.0499 19.2491 16.497 19.3036 15.9635 19.1975C15.4301 19.0914 14.9401 18.8295 14.5555 18.4449C14.1709 18.0603 13.9089 17.5703 13.8028 17.0368C13.6967 16.5034 13.7512 15.9505 13.9593 15.448C14.1675 14.9455 14.5199 14.516 14.9722 14.2138C15.4244 13.9116 15.9561 13.7503 16.5 13.7503C17.2293 13.7503 17.9288 14.0401 18.4445 14.5558C18.9603 15.0715 19.25 15.771 19.25 16.5003Z" fill="white"/>
</g>
<defs>
<clipPath id="clip0_410_42572">
<rect width="33" height="33" fill="white"/>
</clipPath>
</defs>
</svg>
