<svg width="96" height="81" viewBox="0 0 96 81" fill="none" xmlns="http://www.w3.org/2000/svg">
<g id="Frame 4">
<g id="Group 106">
<g id="Vector">
<path d="M0 40.5C0 17.5891 18.3312 0 40.9301 0C63.5289 0 81.8449 17.5891 81.8449 40.5C81.8449 63.4109 63.5137 81 40.9301 81C18.3464 81 0 63.4259 0 40.5ZM63.8479 40.5C63.8479 26.5941 53.7331 17.3486 40.9149 17.3486C28.0967 17.3486 17.9819 26.5791 17.9819 40.5C17.9819 54.4209 28.0967 63.6515 40.9149 63.6515C53.7331 63.6515 63.8479 54.4209 63.8479 40.5Z" fill="white"/>
<path d="M42.0693 75.7679C61.789 75.7679 77.7749 59.944 77.7749 40.4244C77.7749 20.9047 61.789 5.08081 42.0693 5.08081C22.3497 5.08081 6.36375 20.9047 6.36375 40.4244C6.36375 59.944 22.3497 75.7679 42.0693 75.7679Z" fill="white"/>
</g>
<path id="Vector_2" d="M80.3114 53.6391C88.976 53.6391 96 46.6863 96 38.1096C96 29.5329 88.976 22.5801 80.3114 22.5801C71.6468 22.5801 64.6228 29.5329 64.6228 38.1096C64.6228 46.6863 71.6468 53.6391 80.3114 53.6391Z" fill="#FF86FF"/>
</g>
</g>
</svg>
