<svg width="22" height="22" viewBox="0 0 22 22" fill="none" xmlns="http://www.w3.org/2000/svg">
<g id="ic:baseline-tiktok">
<path id="Vector" d="M15.2168 5.335C14.5902 4.61965 14.2449 3.70098 14.2451 2.75H11.4126V14.1167C11.3908 14.7318 11.1311 15.3144 10.6883 15.7419C10.2454 16.1693 9.65397 16.4082 9.03848 16.4083C7.73681 16.4083 6.65514 15.345 6.65514 14.025C6.65514 12.4483 8.17681 11.2658 9.74431 11.7517V8.855C6.58181 8.43333 3.81348 10.89 3.81348 14.025C3.81348 17.0775 6.34348 19.25 9.02931 19.25C11.9076 19.25 14.2451 16.9125 14.2451 14.025V8.25917C15.3937 9.08403 16.7727 9.52659 18.1868 9.52417V6.69167C18.1868 6.69167 16.4635 6.77417 15.2168 5.335Z" fill="black"/>
</g>
</svg>
