<svg width="22" height="22" viewBox="0 0 22 22" fill="none" xmlns="http://www.w3.org/2000/svg">
<g id="mingcute:youtube-line" clip-path="url(#clip0_410_44229)">
<g id="Group">
<path id="Vector" d="M10.9997 3.66699C11.7834 3.66699 12.5873 3.68716 13.3665 3.72016L14.2868 3.76416L15.1678 3.81641L15.9928 3.87233L16.7463 3.93099C17.564 3.99358 18.3334 4.34253 18.9192 4.91645C19.5051 5.49036 19.8697 6.25249 19.9491 7.06874L19.9858 7.45833L20.0545 8.29249C20.1187 9.15691 20.1663 10.0992 20.1663 11.0003C20.1663 11.9014 20.1187 12.8437 20.0545 13.7082L19.9858 14.5423C19.9738 14.6762 19.9619 14.8054 19.9491 14.9319C19.8697 15.7483 19.5049 16.5105 18.9189 17.0845C18.3329 17.6584 17.5632 18.0073 16.7453 18.0697L15.9937 18.1274L15.1687 18.1842L14.2868 18.2365L13.3665 18.2805C12.578 18.3148 11.7889 18.3325 10.9997 18.3337C10.2104 18.3325 9.42133 18.3148 8.63284 18.2805L7.71251 18.2365L6.83159 18.1842L6.00659 18.1274L5.25309 18.0697C4.43538 18.0071 3.66593 17.6581 3.08011 17.0842C2.49429 16.5103 2.12962 15.7482 2.05026 14.9319L2.01359 14.5423L1.94484 13.7082C1.87475 12.8072 1.83745 11.904 1.83301 11.0003C1.83301 10.0992 1.88067 9.15691 1.94484 8.29249L2.01359 7.45833C2.02551 7.32449 2.03742 7.19524 2.05026 7.06874C2.12959 6.25263 2.49412 5.49062 3.07976 4.91672C3.66539 4.34282 4.43463 3.99379 5.25217 3.93099L6.00476 3.87233L6.82976 3.81641L7.71159 3.76416L8.63192 3.72016C9.42072 3.68591 10.2101 3.66818 10.9997 3.66699ZM10.9997 5.50033C10.2434 5.50033 9.46517 5.52049 8.70801 5.55166L7.81151 5.59474L6.95076 5.64516L6.14226 5.70016L5.40159 5.75791C5.01231 5.78553 4.64538 5.95008 4.36584 6.22241C4.0863 6.49473 3.91221 6.85723 3.87442 7.24566C3.76717 8.35391 3.66634 9.73349 3.66634 11.0003C3.66634 12.2672 3.76717 13.6467 3.87442 14.755C3.95234 15.5543 4.58667 16.1758 5.40159 16.2427L6.14226 16.2996L6.95076 16.3546L7.81151 16.4059L8.70801 16.449C9.46517 16.4802 10.2434 16.5003 10.9997 16.5003C11.7559 16.5003 12.5342 16.4802 13.2913 16.449L14.1878 16.4059L15.0486 16.3555L15.8571 16.3005L16.5978 16.2427C16.987 16.2151 17.354 16.0506 17.6335 15.7782C17.913 15.5059 18.0871 15.1434 18.1249 14.755C18.2322 13.6467 18.333 12.2672 18.333 11.0003C18.333 9.73349 18.2322 8.35391 18.1249 7.24566C18.0871 6.85723 17.913 6.49473 17.6335 6.22241C17.354 5.95008 16.987 5.78553 16.5978 5.75791L15.8571 5.70108L15.0486 5.64608L14.1878 5.59474L13.2913 5.55166C12.5279 5.51881 11.7638 5.5017 10.9997 5.50033ZM9.16634 8.77741C9.16628 8.68782 9.18811 8.59957 9.22993 8.52033C9.27174 8.4411 9.33228 8.37328 9.40628 8.32277C9.48028 8.27227 9.5655 8.2406 9.65452 8.23053C9.74354 8.22046 9.83368 8.23229 9.91709 8.26499L9.99134 8.30166L13.8413 10.5237C13.918 10.5679 13.9829 10.63 14.0304 10.7046C14.0779 10.7793 14.1068 10.8643 14.1144 10.9525C14.1221 11.0407 14.1083 11.1294 14.0743 11.2112C14.0404 11.2929 13.9872 11.3652 13.9193 11.422L13.8413 11.477L9.99134 13.6999C9.91376 13.7448 9.82637 13.7701 9.73678 13.7735C9.64719 13.777 9.55812 13.7585 9.47733 13.7196C9.39653 13.6807 9.32646 13.6227 9.27322 13.5506C9.21998 13.4785 9.18517 13.3944 9.17184 13.3057L9.16634 13.2232V8.77741Z" fill="black"/>
</g>
</g>
<defs>
<clipPath id="clip0_410_44229">
<rect width="22" height="22" fill="white"/>
</clipPath>
</defs>
</svg>
