<svg width="27" height="27" viewBox="0 0 27 27" fill="none" xmlns="http://www.w3.org/2000/svg">
<g id="fi-rr-file-check" clip-path="url(#clip0_410_44100)">
<path id="Vector" d="M22.4438 6.22803L18.522 2.30628C17.7925 1.57287 16.9248 0.991404 15.9692 0.595539C15.0135 0.199674 13.9888 -0.00273438 12.9544 2.78957e-05H7.875C6.38371 0.00181424 4.954 0.59502 3.8995 1.64953C2.84499 2.70403 2.25179 4.13373 2.25 5.62503V21.375C2.25179 22.8663 2.84499 24.296 3.8995 25.3505C4.954 26.405 6.38371 26.9982 7.875 27H19.125C20.6163 26.9982 22.046 26.405 23.1005 25.3505C24.155 24.296 24.7482 22.8663 24.75 21.375V11.7957C24.7528 10.7612 24.5504 9.73654 24.1545 8.78086C23.7586 7.82519 23.1772 6.9575 22.4438 6.22803ZM20.853 7.81878C21.1962 8.17249 21.4916 8.56961 21.7316 9.00003H16.875C16.5766 9.00003 16.2905 8.8815 16.0795 8.67052C15.8685 8.45955 15.75 8.1734 15.75 7.87503V3.0184C16.1804 3.25846 16.5775 3.55385 16.9313 3.89703L20.853 7.81878ZM22.5 21.375C22.5 22.2701 22.1444 23.1286 21.5115 23.7615C20.8786 24.3945 20.0201 24.75 19.125 24.75H7.875C6.97989 24.75 6.12145 24.3945 5.48851 23.7615C4.85558 23.1286 4.5 22.2701 4.5 21.375V5.62503C4.5 4.72992 4.85558 3.87148 5.48851 3.23854C6.12145 2.60561 6.97989 2.25003 7.875 2.25003H12.9544C13.14 2.25003 13.3177 2.28603 13.5 2.3029V7.87503C13.5 8.77013 13.8556 9.62858 14.4885 10.2615C15.1214 10.8945 15.9799 11.25 16.875 11.25H22.4471C22.464 11.4323 22.5 11.61 22.5 11.7957V21.375ZM18.8145 14.9749C19.0199 15.191 19.1312 15.4798 19.1238 15.7779C19.1164 16.0759 18.991 16.3589 18.7751 16.5645L14.7375 20.4053C14.1028 21.03 13.247 21.3785 12.3564 21.3749C11.4659 21.3713 10.6129 21.0159 9.98325 20.3862L8.25075 18.8404C8.02787 18.6417 7.89305 18.3626 7.87597 18.0645C7.8675 17.9169 7.8882 17.769 7.93687 17.6294C7.98554 17.4898 8.06123 17.3611 8.15962 17.2508C8.25802 17.1404 8.37718 17.0505 8.51032 16.9862C8.64346 16.9219 8.78795 16.8845 8.93556 16.876C9.23368 16.8589 9.52637 16.9609 9.74925 17.1597L11.5324 18.7504C11.6345 18.865 11.7589 18.9576 11.8981 19.0223C12.0373 19.087 12.1882 19.1226 12.3417 19.1268C12.4951 19.131 12.6478 19.1038 12.7903 19.0468C12.9328 18.9898 13.0622 18.9043 13.1704 18.7954L17.2204 14.9355C17.3275 14.8331 17.4537 14.7529 17.5919 14.6994C17.7301 14.646 17.8775 14.6203 18.0256 14.624C18.1737 14.6277 18.3197 14.6605 18.4551 14.7208C18.5904 14.781 18.7126 14.8673 18.8145 14.9749Z" fill="#374957"/>
</g>
<defs>
<clipPath id="clip0_410_44100">
<rect width="27" height="27" fill="white"/>
</clipPath>
</defs>
</svg>
